<?xml version="1.0" standalone="no"?>
<!DOCTYPE svg PUBLIC "-//W3C//DTD SVG 20010904//EN"
 "http://www.w3.org/TR/2001/REC-SVG-20010904/DTD/svg10.dtd">
<svg version="1.0" xmlns="http://www.w3.org/2000/svg"
 width="500.000000pt" height="500.000000pt" viewBox="0 0 500.000000 500.000000"
 preserveAspectRatio="xMidYMid meet">
<metadata>
Created by potrace 1.14, written by Peter Selinger 2001-2017
</metadata>
<g transform="translate(0.000000,500.000000) scale(0.100000,-0.100000)"
fill="#000000" stroke="none">
<path d="M0 2500 l0 -2500 2500 0 2500 0 0 2500 0 2500 -2500 0 -2500 0 0
-2500z m2665 1570 c273 -29 558 -142 786 -311 402 -298 651 -824 625 -1321
-20 -377 -151 -704 -394 -982 -216 -247 -516 -425 -837 -495 -292 -64 -568
-48 -860 50 -246 84 -426 198 -624 399 -289 292 -458 740 -437 1152 22 428
184 784 490 1081 211 205 484 345 791 406 55 11 114 22 130 24 59 8 242 6 330
-3z"/>
<path d="M2345 3994 c-573 -89 -1050 -500 -1239 -1068 -104 -313 -99 -701 14
-998 18 -49 25 -58 46 -58 30 0 31 17 3 96 -88 253 -102 563 -37 834 122 505
511 924 1003 1083 478 154 991 39 1348 -303 224 -214 351 -451 417 -780 44
-219 7 -551 -90 -796 -223 -564 -769 -945 -1353 -944 -204 1 -345 27 -522 97
-169 67 -289 147 -442 296 -91 88 -123 104 -123 60 0 -42 173 -204 315 -295
104 -67 180 -103 311 -146 178 -59 233 -67 459 -67 176 0 212 3 300 24 206 49
396 133 560 250 109 77 287 256 369 371 79 111 172 296 215 429 177 541 43
1133 -344 1516 -150 149 -292 243 -484 319 -221 88 -485 117 -726 80z"/>
<path d="M3065 3223 c-79 -9 -78 -7 -71 -78 6 -63 6 -65 -21 -79 -78 -40 -92
-96 -69 -281 26 -214 18 -197 79 -189 29 4 55 9 59 13 4 3 -2 77 -13 163 -25
190 -20 211 48 216 60 4 70 -16 93 -193 11 -81 20 -153 20 -160 0 -10 10 -12
38 -9 85 12 85 11 79 52 -3 20 -9 65 -13 100 -6 61 -6 62 18 62 14 0 33 -9 43
-20 11 -12 31 -20 52 -20 18 0 33 2 33 4 0 2 -7 23 -16 47 -10 28 -14 61 -10
92 5 45 4 47 -20 47 -15 0 -39 -14 -60 -36 -20 -19 -41 -33 -46 -32 -6 2 -16
22 -23 44 -6 21 -17 49 -24 62 -15 28 -68 62 -97 62 -17 0 -23 8 -28 38 -3 20
-6 49 -6 64 0 31 -5 35 -45 31z"/>
<path d="M1857 3109 c-23 -30 -29 -32 -150 -47 -124 -15 -125 -15 -152 6 -28
23 -85 30 -85 12 0 -6 7 -27 16 -48 10 -26 13 -51 9 -84 -7 -47 -6 -48 19 -48
25 0 59 25 67 48 2 6 15 13 28 14 18 2 29 -4 40 -25 15 -26 15 -29 -2 -38 -31
-18 -57 -52 -69 -91 -9 -30 -8 -69 6 -181 26 -218 18 -201 83 -194 30 3 57 7
58 9 2 2 -6 75 -17 162 -22 173 -19 197 26 217 31 15 72 4 86 -21 8 -16 50
-293 50 -334 0 -7 110 1 118 9 6 5 -39 326 -49 353 -20 53 -83 102 -131 102
-24 0 -53 34 -43 50 11 18 86 11 112 -10 25 -19 63 -26 76 -14 3 4 -1 24 -10
45 -9 23 -14 59 -11 89 3 48 2 50 -24 50 -18 0 -34 -10 -51 -31z"/>
<path d="M2405 3103 c-226 -29 -280 -48 -320 -117 -19 -33 -25 -57 -25 -102 0
-114 60 -178 161 -172 l56 3 -14 -50 c-8 -27 -21 -72 -29 -99 -8 -27 -14 -53
-14 -57 0 -12 103 2 116 15 6 6 28 72 49 146 l38 135 -12 98 c-7 55 -11 100
-9 102 2 1 15 5 30 9 32 7 31 8 47 -117 5 -43 11 -80 13 -82 9 -8 213 27 237
41 42 25 65 71 65 131 0 61 -22 99 -75 125 -43 23 -79 21 -314 -9z m255 -83
c11 -11 20 -29 20 -40 0 -48 -75 -82 -84 -37 -11 52 -12 87 -2 91 24 10 47 5
66 -14z m-380 -42 c0 -7 5 -42 10 -78 11 -73 1 -90 -51 -90 -42 0 -59 24 -59
81 0 40 5 55 25 74 25 26 75 34 75 13z"/>
<path d="M2589 2505 c-4 -3 3 -36 14 -72 l22 -65 72 7 c67 6 73 5 73 -12 0
-10 3 -27 6 -38 4 -18 -2 -23 -46 -34 -58 -15 -115 -62 -125 -104 -10 -38 2
-90 27 -122 28 -36 76 -55 137 -55 l49 0 7 -75 c4 -41 10 -77 13 -79 4 -2 31
-1 60 1 l54 6 -7 81 -7 81 48 13 c31 8 61 26 87 52 38 39 39 42 35 95 -7 88
-67 135 -170 135 -42 0 -43 3 -53 98 -5 41 -11 62 -20 62 -8 0 -48 -5 -90 -11
-72 -10 -79 -9 -99 10 -23 21 -76 37 -87 26z m386 -291 c26 -26 16 -76 -18
-92 -16 -8 -30 -12 -32 -10 -1 1 -6 29 -9 61 -7 56 -7 57 18 57 13 0 32 -7 41
-16z m-176 -86 c0 -21 -1 -38 -3 -38 -1 0 -17 5 -35 11 -54 19 -54 79 0 106
22 12 25 10 30 -15 4 -15 7 -44 8 -64z"/>
<path d="M2167 2383 c-27 -4 -27 -5 -21 -56 3 -29 7 -57 9 -64 2 -6 -12 -21
-30 -32 -79 -46 -87 -97 -58 -335 l17 -138 55 6 c30 4 57 9 59 11 3 2 -3 62
-12 133 -27 217 -20 252 51 252 55 0 66 -25 88 -203 l21 -162 49 3 c80 4 77
-8 50 175 -5 34 -3 37 18 37 13 0 32 -9 42 -20 23 -25 85 -28 85 -4 0 8 -5 25
-12 37 -6 12 -11 48 -10 80 2 52 1 57 -19 57 -12 0 -36 -16 -55 -35 -44 -47
-59 -45 -73 10 -14 57 -54 102 -106 119 -22 8 -41 20 -42 28 -1 7 -5 34 -8 61
-6 45 -7 47 -38 46 -18 -1 -44 -4 -60 -6z"/>
</g>
</svg>
